<svg width="78" height="40" viewBox="0 0 78 40" fill="none" xmlns="http://www.w3.org/2000/svg">
<rect width="78" height="40" rx="5" fill="#F84646"/>
<path d="M21.12 25V14.92H22.807V23.418H27.259V25H21.12ZM31.7838 25.21C31.0278 25.21 30.3675 25.0397 29.8028 24.699C29.2382 24.3583 28.7995 23.8893 28.4868 23.292C28.1788 22.69 28.0248 21.9993 28.0248 21.22C28.0248 20.4267 28.1835 19.7313 28.5008 19.134C28.8182 18.5367 29.2592 18.07 29.8238 17.734C30.3885 17.398 31.0418 17.23 31.7838 17.23C32.5445 17.23 33.2072 17.4003 33.7718 17.741C34.3365 18.0817 34.7752 18.553 35.0878 19.155C35.4005 19.7523 35.5568 20.4407 35.5568 21.22C35.5568 22.004 35.3982 22.697 35.0808 23.299C34.7682 23.8963 34.3295 24.3653 33.7648 24.706C33.2002 25.042 32.5398 25.21 31.7838 25.21ZM31.7838 23.628C32.4558 23.628 32.9552 23.404 33.2818 22.956C33.6085 22.508 33.7718 21.9293 33.7718 21.22C33.7718 20.4873 33.6062 19.904 33.2748 19.47C32.9435 19.0313 32.4465 18.812 31.7838 18.812C31.3312 18.812 30.9578 18.9147 30.6638 19.12C30.3745 19.3207 30.1598 19.603 30.0198 19.967C29.8798 20.3263 29.8098 20.744 29.8098 21.22C29.8098 21.9527 29.9755 22.5383 30.3068 22.977C30.6428 23.411 31.1352 23.628 31.7838 23.628ZM40.2771 28.57C39.8571 28.57 39.4535 28.5047 39.0661 28.374C38.6835 28.2433 38.3381 28.0543 38.0301 27.807C37.7221 27.5643 37.4701 27.2703 37.2741 26.925L38.8281 26.155C38.9728 26.4303 39.1758 26.6333 39.4371 26.764C39.7031 26.8993 39.9855 26.967 40.2841 26.967C40.6341 26.967 40.9468 26.904 41.2221 26.778C41.4975 26.6567 41.7098 26.4747 41.8591 26.232C42.0131 25.994 42.0855 25.6953 42.0761 25.336V23.187H42.2861V17.44H43.7631V25.364C43.7631 25.5553 43.7538 25.7373 43.7351 25.91C43.7211 26.0873 43.6955 26.26 43.6581 26.428C43.5461 26.918 43.3315 27.3193 43.0141 27.632C42.6968 27.9493 42.3025 28.185 41.8311 28.339C41.3645 28.493 40.8465 28.57 40.2771 28.57ZM40.1301 25.21C39.4348 25.21 38.8281 25.035 38.3101 24.685C37.7921 24.335 37.3908 23.859 37.1061 23.257C36.8215 22.655 36.6791 21.976 36.6791 21.22C36.6791 20.4547 36.8215 19.7733 37.1061 19.176C37.3955 18.574 37.8038 18.1003 38.3311 17.755C38.8585 17.405 39.4791 17.23 40.1931 17.23C40.9118 17.23 41.5138 17.405 41.9991 17.755C42.4891 18.1003 42.8601 18.574 43.1121 19.176C43.3641 19.778 43.4901 20.4593 43.4901 21.22C43.4901 21.9713 43.3641 22.6503 43.1121 23.257C42.8601 23.859 42.4845 24.335 41.9851 24.685C41.4858 25.035 40.8675 25.21 40.1301 25.21ZM40.3891 23.698C40.8418 23.698 41.2058 23.5953 41.4811 23.39C41.7611 23.18 41.9641 22.8883 42.0901 22.515C42.2208 22.1417 42.2861 21.71 42.2861 21.22C42.2861 20.7253 42.2208 20.2937 42.0901 19.925C41.9641 19.5517 41.7658 19.2623 41.4951 19.057C41.2245 18.847 40.8745 18.742 40.4451 18.742C39.9925 18.742 39.6191 18.854 39.3251 19.078C39.0311 19.2973 38.8141 19.596 38.6741 19.974C38.5341 20.3473 38.4641 20.7627 38.4641 21.22C38.4641 21.682 38.5318 22.102 38.6671 22.48C38.8071 22.8533 39.0195 23.1497 39.3041 23.369C39.5888 23.5883 39.9505 23.698 40.3891 23.698ZM45.8661 16.292V14.745H47.5531V16.292H45.8661ZM45.8661 25V17.44H47.5531V25H45.8661ZM54.8789 25V21.36C54.8789 21.122 54.8626 20.8583 54.8299 20.569C54.7973 20.2797 54.7203 20.002 54.5989 19.736C54.4823 19.4653 54.3049 19.2437 54.0669 19.071C53.8336 18.8983 53.5163 18.812 53.1149 18.812C52.9003 18.812 52.6879 18.847 52.4779 18.917C52.2679 18.987 52.0766 19.1083 51.9039 19.281C51.7359 19.449 51.6006 19.6823 51.4979 19.981C51.3953 20.275 51.3439 20.653 51.3439 21.115L50.3429 20.688C50.3429 20.044 50.4666 19.4607 50.7139 18.938C50.9659 18.4153 51.3346 18 51.8199 17.692C52.3053 17.3793 52.9026 17.223 53.6119 17.223C54.1719 17.223 54.6339 17.3163 54.9979 17.503C55.3619 17.6897 55.6513 17.9277 55.8659 18.217C56.0806 18.5063 56.2393 18.8143 56.3419 19.141C56.4446 19.4677 56.5099 19.778 56.5379 20.072C56.5706 20.3613 56.5869 20.597 56.5869 20.779V25H54.8789ZM49.6359 25V17.44H51.1409V19.785H51.3439V25H49.6359Z" fill="white"/>
</svg>
